<?xml version="1.0" encoding="utf-8"?>
<!-- Generator: Adobe Illustrator 26.0.1, SVG Export Plug-In . SVG Version: 6.00 Build 0)  -->
<svg version="1.1" id="Layer_1" xmlns="http://www.w3.org/2000/svg" xmlns:xlink="http://www.w3.org/1999/xlink" x="0px" y="0px"
	 viewBox="0 0 1080 1080" style="enable-background:new 0 0 1080 1080;" xml:space="preserve">
<style type="text/css">
	.st0{fill:#E75E1C;}
	.st1{fill:#F4EEE8;}
	.st2{fill:#13870A;}
	.st3{fill:#002074;}
	.st4{fill:#FFFFFF;}
	.st5{fill-rule:evenodd;clip-rule:evenodd;fill:#FFFFFF;}
	.st6{fill:#252060;}
</style>
<g>
	<circle class="st0" cx="540" cy="540" r="540"/>
	<circle class="st1" cx="540" cy="540" r="472.5"/>
	<circle class="st2" cx="540" cy="540" r="405"/>
	<circle class="st3" cx="540" cy="540" r="337.5"/>
	<g>
		<g>
			<path class="st4" d="M634.27,717.73l44.03-44.03c3.35-3.35,5-8.02,4.5-12.72l-7.05-67.8c-0.14-4.52-1.97-8.74-5.19-11.97
				c-3.38-3.38-7.85-5.21-12.59-5.19c-4.69-0.01-9.15,1.84-12.51,5.19c-3.15,3.15-4.97,7.26-5.18,11.66
				c-0.01,0.26-0.02,0.53-0.02,0.8l-0.38,22.2l-0.29,16.8c-4.35,0.23-8.67,2.02-11.96,5.31L598.59,667
				c-2.03,2.03-4.41,3.51-6.89,4.3c-7.75,2.46-14.59,6.61-20.32,12.34c-2.8,2.8-5.25,5.91-7.33,9.25c-1.74,2.78-3.21,5.73-4.41,8.79
				c-2.56,6.55-3.85,13.63-3.68,20.8c0.1,4.3,0.73,8.45,1.83,12.42c-2.16,0.81-4.15,2.08-5.84,3.77c-3.15,3.15-4.87,7.32-4.87,11.77
				v31.37c0,3.58,2.9,6.48,6.49,6.49h76.24c3.59-0.01,6.49-2.91,6.49-6.49v-3.46v-27.91c0-6.31-3.51-11.79-8.68-14.61l0.01-2.04
				C627.61,727.76,630.01,721.99,634.27,717.73z M626.35,778.34h-69.33v-27.91c0-1.85,0.75-3.53,1.96-4.73
				c1.21-1.21,2.88-1.96,4.73-1.96h55.95c3.7,0,6.69,2.99,6.69,6.69V778.34z M626.19,711.75c-5.46,5.46-8.51,12.85-8.51,20.57
				l-0.01,1.48h-49.81c-3.13-9.64-2.42-20.45,1.66-29.92c1.38-3.2,3.15-6.25,5.28-9.05c1.11-1.45,2.32-2.84,3.62-4.14
				c4.38-4.38,9.84-7.85,16.31-9.9c4.18-1.33,7.93-3.77,11.03-6.87l28.9-28.9c1.92-1.92,4.63-2.77,7.16-2.36
				c1.28,0.21,2.51,0.73,3.56,1.61c3.62,2.97,3.81,8.33,0.57,11.56l-28.13,28.13c-1.94,1.94-1.94,5.09,0,7.03
				c1.11,1.11,2.63,1.59,4.08,1.42c1.08-0.12,2.12-0.6,2.95-1.42l4.63-4.63l4.11-4.11l19.17-19.17c1.3-1.3,2.45-2.75,3.32-4.38
				c4.11-7.8,1.93-16.71-4.11-21.89c-0.08-0.07-0.17-0.14-0.25-0.21c-0.71-0.59-1.46-1.09-2.23-1.55l0.33-19.23l0.38-22.03
				c0-2.15,0.87-4.11,2.29-5.53c1.41-1.41,3.37-2.28,5.52-2.28c2.16-0.01,4.11,0.87,5.52,2.28c1.42,1.42,2.3,3.37,2.29,5.53
				l7.1,68.23c0.18,1.73-0.43,3.45-1.66,4.67L626.19,711.75z"/>
			<path class="st4" d="M568.07,753.78c-2.22,2.22-2.22,5.82,0,8.04s5.82,2.22,8.04,0c2.22-2.22,2.22-5.82,0-8.04
				C573.89,751.56,570.29,751.56,568.07,753.78z"/>
			<path class="st4" d="M522.21,734.89c1.1-3.97,1.73-8.12,1.83-12.42c0.16-7.17-1.12-14.25-3.68-20.8c-1.2-3.06-2.67-6-4.4-8.79
				c-2.08-3.34-4.54-6.45-7.34-9.25c-5.73-5.73-12.57-9.88-20.32-12.34c-2.48-0.79-4.86-2.27-6.89-4.3l-29.03-29.03
				c-3.29-3.29-7.61-5.07-11.96-5.31l-0.29-16.8l-0.38-22.2c0-0.27-0.01-0.53-0.02-0.8c-0.21-4.4-2.04-8.51-5.18-11.66
				c-3.36-3.36-7.82-5.21-12.51-5.19c-4.74-0.02-9.21,1.82-12.59,5.19c-3.23,3.22-5.05,7.45-5.19,11.97l-7.05,67.8
				c-0.5,4.7,1.16,9.37,4.5,12.72l44.03,44.03c4.26,4.26,6.65,10.03,6.64,16.04l0.01,2.04c-5.17,2.82-8.68,8.3-8.68,14.61v27.91
				v3.46c0,3.58,2.9,6.48,6.49,6.49h76.24c3.59-0.01,6.49-2.91,6.49-6.49v-31.37c0-4.44-1.73-8.62-4.87-11.77
				C526.36,736.97,524.38,735.71,522.21,734.89z M408.75,666.68c-1.23-1.23-1.84-2.94-1.66-4.67l7.1-68.23
				c-0.01-2.16,0.87-4.11,2.29-5.53c1.41-1.41,3.36-2.29,5.52-2.28c2.15,0,4.11,0.87,5.52,2.28c1.42,1.42,2.29,3.38,2.29,5.53
				l0.38,22.03l0.33,19.23c-0.77,0.45-1.52,0.95-2.23,1.55c-0.09,0.07-0.17,0.14-0.25,0.21c-6.04,5.18-8.22,14.09-4.11,21.89
				c0.86,1.63,2.02,3.08,3.32,4.38l19.17,19.17l4.11,4.11l4.63,4.63c0.83,0.83,1.87,1.3,2.95,1.42c1.45,0.17,2.97-0.31,4.08-1.42
				c1.94-1.94,1.94-5.09,0-7.03l-28.13-28.13c-3.23-3.23-3.04-8.59,0.57-11.56c1.06-0.87,2.29-1.4,3.56-1.61
				c2.52-0.41,5.24,0.44,7.16,2.36l28.9,28.9c3.1,3.1,6.85,5.55,11.03,6.87c6.47,2.05,11.93,5.52,16.31,9.9
				c1.3,1.3,2.51,2.69,3.62,4.14c2.14,2.8,3.9,5.85,5.28,9.05c4.08,9.47,4.78,20.28,1.66,29.92h-49.82l-0.01-1.48
				c0-7.72-3.05-15.11-8.51-20.57L408.75,666.68z M522.98,778.34h-69.33v-27.91c0-3.7,2.99-6.69,6.69-6.69h55.94
				c1.85,0,3.53,0.75,4.73,1.96c1.21,1.21,1.96,2.88,1.96,4.73V778.34z"/>
			<circle class="st4" cx="507.91" cy="757.8" r="5.68"/>
		</g>
		<g>
			<path class="st5" d="M537.16,375.97c-15.23,0-27.57,12.34-27.57,27.57c0,15.23,12.34,27.57,27.57,27.57
				c15.23,0,27.57-12.34,27.57-27.57C564.73,388.32,552.38,375.97,537.16,375.97z M547.37,400.63c-1.61,0-3.2,0-4.74,0
				c-1.67,5.56-5.5,7.8-11.21,7.44c3.76,3.76,7.42,7.43,11.17,11.18c-0.63,0-1.14,0-1.64,0c-1.09,0-2.18,0.01-3.27-0.01
				c-0.19,0-0.43-0.09-0.57-0.22c-3.33-3.31-6.64-6.63-9.95-9.95c-0.1-0.1-0.21-0.23-0.21-0.35c-0.01-1.43-0.01-2.87-0.01-4.35
				c0.19,0,0.34,0,0.5,0c2.02,0,4.04,0.04,6.05-0.01c2.29-0.06,3.96-1.17,4.98-3.22c0.05-0.09,0.08-0.18,0.12-0.28
				c0.01-0.04,0.01-0.08,0.03-0.19c-3.89,0-7.76,0-11.66,0c0-1.26,0-2.46,0-3.7c3.88,0,7.75,0,11.69,0
				c-0.06-0.19-0.09-0.33-0.15-0.45c-1.02-2.07-2.67-3.22-4.99-3.28c-2.02-0.05-4.04-0.01-6.05-0.01c-0.16,0-0.31,0-0.49,0
				c0-1.25,0-2.46,0-3.7c6.8,0,13.58,0,20.4,0c0,1.23,0,2.44,0,3.69c-2.16,0-4.3,0-6.52,0c0.86,1.16,1.41,2.37,1.72,3.74
				c1.61,0,3.2,0,4.81,0C547.37,398.19,547.37,399.39,547.37,400.63z"/>
			<path class="st4" d="M606.99,489.61h-5.28v-7.18c26.81-0.12,27.07-41.72-0.1-41.72H476.95c-27.13,0-27.25,41.6-0.1,41.72v7.18
				h-5.28c-11.22,0.01-20.3,9.1-20.3,20.31v97.97c0.01,14.01,11.37,25.37,25.38,25.38h125.27c14.01-0.01,25.37-11.37,25.38-25.38
				v-97.97C627.3,498.71,618.21,489.62,606.99,489.61z M476.95,472.37c-13.87,0-13.76-21.62,0-21.62h124.66
				c13.59,0,13.92,21.62,0,21.62H476.95z"/>
			<path class="st5" d="M524.64,332.6l25.33-22.35c2.74-2.42,5.71-3.15,6.76-3.3l36.89-4.13c5.32-0.72,29.23-10.26,33.7-11.07
				c1.73-0.31,5.01,1.24,5.04,4.2l0.19,38.6c0.01,1.52-0.62,2.42-2.5,2.89l-22.52,5.71c-0.9,0.23-1.64,0.78-2.07,1.6l-8.92,17.04
				c-2.77,5.3-9.93,8.14-18.48,24.59c-3.09,5.95-16.47,4.91-11.34-9.97c8.93-23.75,16.86-27.49-5.32-40.57
				c-3.62-2.14-22.34,7.97-26.47,9.98l-9.29,22.32c-5.45,13.08-17.69,7.63-15.54,1.03l9.2-28.25
				C520.85,336.17,520.45,335.71,524.64,332.6 M532.93,307.08l-60.73,1.1c-3.27,0.06-4.07,9.14,3.6,9.38l17.43,0.07
				c1.63,0.01,2.99-0.31,4.58-0.65l35.4-7.49c0.61-0.13,1.02-0.7,0.95-1.32C534.09,307.53,533.56,307.07,532.93,307.08
				 M538.19,311.08l-59.87,14.25c-8.46,1.2-3.49,14.09,4.71,11.69l31.03-6.18c4.47-0.95,5.93-1.98,8.04-3.46
				c5.49-3.85,12.51-10.94,17.05-14.12c0.48-0.34,0.66-0.95,0.43-1.49C539.34,311.23,538.77,310.94,538.19,311.08"/>
			<g>
				<path class="st6" d="M494.36,563.38c-0.54,0.85-1.31,1.53-2.31,2.05c-1,0.51-2.17,0.77-3.49,0.77c-2.04,0-3.68-0.47-4.92-1.42
					c-1.24-0.95-1.86-2.28-1.86-4h3.99c0.07,0.8,0.34,1.4,0.81,1.82c0.47,0.42,1.13,0.62,1.98,0.62c0.85,0,1.52-0.22,2.02-0.66
					c0.5-0.44,0.74-1.02,0.74-1.73c0-0.57-0.17-1.03-0.52-1.38c-0.35-0.35-0.77-0.63-1.28-0.82c-0.5-0.19-1.22-0.42-2.14-0.66
					c-1.19-0.3-2.15-0.61-2.9-0.93c-0.74-0.32-1.38-0.82-1.91-1.5c-0.53-0.68-0.8-1.61-0.8-2.78c0-1.12,0.28-2.09,0.84-2.94
					c0.56-0.84,1.33-1.49,2.33-1.94c0.99-0.45,2.12-0.68,3.37-0.68c1.93,0,3.48,0.44,4.65,1.32s1.81,2.21,1.91,4h-4.09
					c-0.07-0.71-0.34-1.27-0.8-1.69c-0.46-0.42-1.05-0.62-1.78-0.62c-0.76,0-1.38,0.19-1.85,0.57c-0.47,0.38-0.7,0.96-0.7,1.74
					c0,0.58,0.17,1.06,0.52,1.42c0.35,0.36,0.77,0.64,1.29,0.84c0.51,0.19,1.22,0.41,2.13,0.64c1.19,0.3,2.15,0.61,2.9,0.93
					c0.74,0.32,1.38,0.82,1.9,1.5c0.52,0.68,0.78,1.61,0.78,2.78C495.17,561.61,494.9,562.53,494.36,563.38z"/>
				<path class="st6" d="M509.73,562.53h-7.23l-1.2,3.48h-3.96l6.56-18.6h4.44l6.54,18.6h-3.96L509.73,562.53z M508.77,559.66
					l-2.66-7.73l-2.63,7.73H508.77z"/>
				<path class="st6" d="M519.83,547.47l5.08,14.8l5.08-14.8h3.99l-6.8,18.55h-4.52l-6.78-18.55H519.83z"/>
				<path class="st6" d="M540.07,547.47v18.55h-3.75v-18.55H540.07z"/>
				<path class="st6" d="M559.95,566.01h-3.75l-8.4-12.86v12.86h-3.75v-18.6h3.75l8.4,12.86v-12.86h3.75V566.01z"/>
				<path class="st6" d="M577.77,548.74c1.57,1.03,2.69,2.47,3.36,4.33h-4.49c-0.83-1.63-2.25-2.44-4.25-2.44
					c-1.12,0-2.1,0.25-2.96,0.74c-0.86,0.5-1.53,1.2-2.01,2.13c-0.48,0.92-0.72,1.98-0.72,3.19c0,1.2,0.24,2.27,0.72,3.19
					c0.48,0.92,1.15,1.63,2.01,2.14c0.86,0.51,1.85,0.76,2.96,0.76c1.38,0,2.51-0.38,3.39-1.13c0.88-0.75,1.42-1.77,1.63-3.04h-6.16
					v-2.84h10.18v2.84c-0.2,1.29-0.7,2.52-1.51,3.68c-0.82,1.16-1.87,2.1-3.18,2.82c-1.3,0.72-2.75,1.08-4.34,1.08
					c-1.74,0-3.33-0.4-4.78-1.21c-1.45-0.81-2.6-1.93-3.44-3.37c-0.84-1.44-1.26-3.08-1.26-4.9c0-1.81,0.42-3.43,1.26-4.88
					c0.84-1.44,1.99-2.57,3.44-3.39c1.45-0.81,3.05-1.22,4.78-1.22C574.4,547.2,576.2,547.72,577.77,548.74z"/>
				<path class="st6" d="M596.55,563.38c-0.54,0.85-1.31,1.53-2.31,2.05c-1,0.51-2.17,0.77-3.49,0.77c-2.04,0-3.68-0.47-4.92-1.42
					c-1.24-0.95-1.86-2.28-1.86-4h3.99c0.07,0.8,0.34,1.4,0.81,1.82c0.47,0.42,1.13,0.62,1.98,0.62c0.85,0,1.52-0.22,2.02-0.66
					c0.5-0.44,0.74-1.02,0.74-1.73c0-0.57-0.17-1.03-0.52-1.38c-0.35-0.35-0.77-0.63-1.28-0.82c-0.51-0.19-1.22-0.42-2.14-0.66
					c-1.19-0.3-2.15-0.61-2.9-0.93c-0.74-0.32-1.38-0.82-1.91-1.5c-0.53-0.68-0.8-1.61-0.8-2.78c0-1.12,0.28-2.09,0.84-2.94
					c0.56-0.84,1.33-1.49,2.33-1.94c0.99-0.45,2.12-0.68,3.37-0.68c1.93,0,3.48,0.44,4.65,1.32s1.81,2.21,1.91,4h-4.09
					c-0.07-0.71-0.34-1.27-0.8-1.69c-0.46-0.42-1.05-0.62-1.78-0.62c-0.76,0-1.38,0.19-1.85,0.57c-0.47,0.38-0.7,0.96-0.7,1.74
					c0,0.58,0.17,1.06,0.52,1.42c0.35,0.36,0.77,0.64,1.29,0.84c0.51,0.19,1.22,0.41,2.13,0.64c1.19,0.3,2.15,0.61,2.9,0.93
					c0.74,0.32,1.38,0.82,1.9,1.5c0.52,0.68,0.78,1.61,0.78,2.78C597.36,561.61,597.09,562.53,596.55,563.38z"/>
			</g>
		</g>
	</g>
</g>
</svg>
